<?xml version="1.0" encoding="UTF-8" standalone="no"?>
<!-- Created with Inkscape (http://www.inkscape.org/) -->

<svg
   width="155.57527mm"
   height="154.50363mm"
   viewBox="0 0 155.57527 154.50363"
   version="1.1"
   id="svg1"
   xml:space="preserve"
   xmlns:inkscape="http://www.inkscape.org/namespaces/inkscape"
   xmlns:sodipodi="http://sodipodi.sourceforge.net/DTD/sodipodi-0.dtd"
   xmlns="http://www.w3.org/2000/svg"
   xmlns:svg="http://www.w3.org/2000/svg"><sodipodi:namedview
     id="namedview1"
     pagecolor="#505050"
     bordercolor="#ffffff"
     borderopacity="1"
     inkscape:showpageshadow="0"
     inkscape:pageopacity="0"
     inkscape:pagecheckerboard="1"
     inkscape:deskcolor="#505050"
     inkscape:document-units="mm" /><defs
     id="defs1" /><g
     inkscape:label="Слой 1"
     inkscape:groupmode="layer"
     id="layer1"
     transform="translate(7.4022271,-108.87896)"><path
       style="fill:#ebd37c;fill-opacity:1"
       d="m 47.465732,262.58878 c 0.091,-0.43656 0.23782,-1.14115 0.32638,-1.56574 0.13844,-0.66378 -0.009,-0.94172 -1.04975,-1.98276 -2.27092,-2.27091 -6.5358,-5.18086 -10.21494,-6.96968 -1.95967,-0.95281 -4.03136,-2.07163 -4.60376,-2.48627 -1.18326,-0.85715 -1.49048,-0.92803 -1.49048,-0.34387 0,0.79268 0.82411,1.99002 1.92772,2.80078 0.83561,0.61387 0.94925,0.77061 0.45353,0.62553 -0.87931,-0.25733 -2.28736,-1.3304 -2.82758,-2.15488 -0.2395,-0.36552 -0.62435,-1.24405 -0.85524,-1.9523 -0.34735,-1.0655 -0.73926,-1.54442 -2.27109,-2.77527 -1.9011,-1.52756 -3.30651,-2.40636 -3.30651,-2.06755 0,0.42426 1.41681,4.81351 2.01104,6.23018 0.34914,0.83236 0.62741,1.96346 0.61838,2.51354 l -0.0164,1.00016 -0.56683,-1.1285 c -0.31175,-0.62068 -0.68946,-1.08762 -0.83935,-1.03766 -0.14989,0.05 -0.39362,0.79591 -0.54162,1.65767 l -0.26909,1.56683 -0.46264,-0.65419 c -0.650287,-0.91951 -0.575738,-2.18293 0.22165,-3.75651 l 0.6843,-1.35039 -0.55803,-1.45822 c -0.848777,-2.218 -5.360296,-8.79374 -6.809752,-9.92552 -1.005771,-0.78534 -3.216019,-3.17101 -3.981473,-4.29748 -0.341962,-0.50324 -0.736518,-0.91498 -0.876793,-0.91498 -0.449984,0 -0.272446,1.97064 0.274122,3.0427 0.680149,1.33408 0.666443,1.41183 -0.118824,0.67411 -0.854799,-0.80304 -1.468676,-2.6707 -1.468676,-4.4683 0,-1.24164 -0.17116,-1.74292 -1.1864112,-3.47466 -0.652526,-1.11303 -1.485964,-2.30511 -1.852084,-2.64906 l -0.665672,-0.62537 -0.06577,2.22893 c -0.03617,1.22592 -0.0314,3.21012 0.0106,4.40933 0.07302,2.08484 -0.194154,3.24357 -0.747892,3.24357 -0.1404,0 -0.255274,-0.48618 -0.255274,-1.08039 0,-1.39781 -0.447645,-1.27336 -1.322917,0.36778 -0.363802,0.68213 -0.750755,1.24059 -0.859895,1.24101 -0.377259,0.001 -0.196913,-2.43371 0.234299,-3.1637 0.238005,-0.40291 0.760061,-0.92592 1.160125,-1.16224 1.249969,-0.73838 1.310759,-2.82392 0.205507,-7.05038 -1.069699,-4.09051 -2.070203,-7.04125 -2.700224,-7.96365 -0.357703,-0.52371 -0.991835,-2.00411 -1.409181,-3.28977 -0.41734497,-1.28566 -0.88637297,-2.38009 -1.04228197,-2.43206 -0.59618,-0.19873 -0.844636,2.72943 -0.343446,4.04766 0.482075,1.26795 0.01789,1.03102 -0.565962,-0.28888 -0.65943703,-1.49077 -0.59144803,-3.69815 0.15858,-5.14855 0.513575,-0.99314 0.402318,-2.57482 -0.352554,-5.01205 -0.48896503,-1.57871 -0.95627203,-1.96705 -1.23679003,-1.02779 -0.10018,0.33544 -0.582096,1.44332 -1.070925,2.46196 -0.488829,1.01865 -0.959132,2.30384 -1.045117,2.85598 -0.08726,0.56034 -0.491901,1.37864 -0.915828,1.85208 l -0.759492,0.84819 0.296945,-1.11614 c 0.163319,-0.61387 0.217058,-1.19602 0.119419,-1.29366 -0.09764,-0.0976 -0.597485,0.14279 -1.110769,0.53429 l -0.933243,0.71182 v -0.8985 c 0,-1.08801 0.540362,-1.62235 2.046022,-2.02322 1.280514,-0.34092 1.435178,-0.56566 2.013702,-2.92604 0.753108,-3.0727 0.984013,-7.85825 0.648388,-13.43801 -0.288273,-4.79255 -0.333995,-5.07477 -0.750126,-4.63021 -0.603921,0.64519 -1.308507,2.54733 -1.328923,3.58763 -0.0162,0.82568 -0.0255,0.83268 -0.275333,0.20713 -0.170812,-0.4277 -0.164589,-1.08561 0.01834,-1.93855 0.328214,-1.53041 0.653309,-2.21068 1.482687,-3.10258 0.338301,-0.3638 0.791911,-1.08475 1.00802,-1.6021 0.496535,-1.18868 0.881473,-5.54165 0.490054,-5.54165 -0.350102,0 -3.622286,3.51256 -4.49821,4.82865 -0.363193,0.5457 -0.704061,0.99219 -0.757483,0.99219 -0.05342,0 -0.09713,-0.65485 -0.09713,-1.45521 0,-1.43707 0.0098,-1.45521 0.785404,-1.45521 0.648682,0 0.979415,-0.26262 1.8999,-1.50864 1.964645,-2.65944 3.97754103,-7.11139 5.02308803,-11.10964 0.437904,-1.67457 1.10217297,-3.75022 1.47615297,-4.61254 0.373979,-0.86233 0.603394,-1.64444 0.50981,-1.73802 -0.346758,-0.34676 -1.54841797,0.59303 -2.36023497,1.84587 -0.882443,1.36184 -1.31046903,1.32362 -0.598367,-0.0534 0.649772,-1.25652 1.95710697,-2.62254 3.21587497,-3.36022 0.945682,-0.55421 1.387242,-1.11551 2.507545,-3.18751 1.487251,-2.75069 1.490269,-3.54769 0.0094,-2.49325 -0.440727,0.31383 -1.491697,0.87458 -2.335488,1.24612 -0.843792,0.37154 -1.92349497,0.97072 -2.39934097,1.33151 -0.475846,0.3608 -1.309283,0.71959 -1.85208303,0.79733 l -0.986909,0.14133 0.770284,-0.6442 c 1.01206303,-0.8464 0.710202,-1.26095 -0.918191,-1.26095 -1.482551,0 -1.670379,-0.32782 -0.526691,-0.91925 1.004195,-0.51929 2.11348,-0.51178 3.45091403,0.0234 1.06437297,0.42587 1.07124297,0.42463 2.56409397,-0.46302 2.0807,-1.2372 6.503181,-5.66719 8.8125802,-8.82755 1.063379,-1.45521 2.457526,-3.21283 3.098105,-3.90583 0.640578,-0.693 1.09173,-1.37804 1.00256,-1.52232 -0.256692,-0.41534 -1.475993,-9.5e-4 -2.841676,0.96577 -1.472003,1.04198 -1.644137,0.81441 -0.344879,-0.45595 0.941494,-0.92056 2.909146,-1.77211 4.177775,-1.80804 1.107093,-0.0314 5.525803,-3.79837 5.033252,-4.29092 -0.263458,-0.26345 -4.291924,0.16878 -6.216802,0.66703 -1.405913,0.36392 -2.997018,0.29991 -3.263512,-0.13128 -0.07957,-0.12875 0.150277,-0.23408 0.510765,-0.23408 0.837762,0 1.492463,-0.25098 1.492463,-0.57214 0,-0.13802 -0.599379,-0.50003 -1.331954,-0.80447 -0.732576,-0.30445 -1.286531,-0.6848 -1.231012,-0.84524 0.05647,-0.16319 0.695306,-0.28705 1.450152,-0.28116 1.114025,0.009 1.533442,0.1586 2.406122,0.8599 0.744844,0.59857 1.33461,0.84936 1.997416,0.84936 2.344515,0 9.994229,-3.5898 13.245739,-6.21586 0.58208,-0.47011 1.92619,-1.29177 2.9869,-1.8259 1.06071,-0.53413 1.85736,-1.08637 1.77032,-1.2272 -0.28521,-0.46148 -2.74008,-0.28352 -3.84172,0.2785 -1.31753,0.67215 -1.36115,0.34228 -0.0707,-0.53455 0.90378,-0.61408 1.17367,-0.65735 3.7685,-0.6041 2.23212,0.0458 3.07722,-0.0476 4.1963,-0.46388 2.14217,-0.79682 3.58242,-1.59545 3.32654,-1.84458 -0.31203,-0.3038 -4.12353,-1.23514 -5.91846,-1.44618 -2.60788,-0.30661 -3.87571,-1.19751 -1.70417,-1.19751 0.50073,0 0.91042,-0.11345 0.91042,-0.25211 0,-0.13866 -0.47625,-0.63484 -1.05833,-1.10262 -1.22994,-0.9884 -1.3199,-1.2911 -0.38374,-1.2911 1.11527,0 2.17415,0.72658 2.92428,2.00657 0.38997,0.66544 0.99766,1.31962 1.35043,1.45374 1.82296,0.69309 10.23074,0.0356 13.968399,-1.09232 1.01865,-0.3074 2.76284,-0.69806 3.87598,-0.86814 1.11314,-0.17007 2.05228,-0.42829 2.08698,-0.57381 0.1107,-0.46426 -1.15611,-0.91811 -2.5739,-0.92214 -1.80151,-0.005 -2.01969,-0.41841 -0.33861,-0.64141 1.53059,-0.20304 2.92932,0.11644 4.53911,1.03676 0.9372,0.5358 1.50305,0.65328 3.15914,0.6559 2.13693,0.003 3.6711,-0.2089 3.6711,-0.50795 0,-0.23014 -4.53731,-3.2176 -6.01043,-3.95741 -0.6136,-0.30815 -1.24286,-0.798 -1.39837,-1.08857 -0.35097,-0.6558 -0.0255,-0.69215 1.07971,-0.12062 1.19821,0.61962 1.37136,0.23087 0.51078,-1.14678 -0.62652,-1.00298 -0.69944,-1.2625 -0.37475,-1.3338 1.03516,-0.22731 1.85716,0.81114 2.31789,2.92823 l 0.30329,1.39363 1.98438,0.97642 c 2.49972,1.23001 8.39087,2.7564 11.50937,2.98207 1.30969,0.0948 3.30614,0.36191 4.43656,0.59362 1.13042,0.23171 2.1318,0.3448 2.22529,0.25132 0.31984,-0.31985 -0.84028,-1.31082 -2.42852,-2.07446 l -1.5875,-0.76327 1.32292,0.15566 c 1.52904,0.17992 3.17838,1.19366 3.96875,2.43934 0.30654,0.48313 1.03514,1.05608 1.73183,1.36187 1.44938,0.63616 4.92252,1.62238 5.09745,1.44746 0.19257,-0.19258 -2.46244,-3.78819 -3.67961,-4.98319 -1.18453,-1.16296 -1.69446,-1.96952 -1.69446,-2.68015 0,-0.40437 0.0745,-0.39039 0.61236,0.11489 1.04655,0.98318 1.32436,0.76471 1.11888,-0.87992 -0.20301,-1.62484 -0.0132,-1.78159 0.93462,-0.77199 0.57331,0.61065 0.64143,0.91832 0.64143,2.89705 v 2.21385 l 1.05833,1.09499 c 2.33938,2.42041 8.44763,6.36035 11.851184,7.64424 0.40628,0.15325 1.44154,0.75595 2.30059,1.33932 1.6128,1.09523 2.12011,1.27736 2.12011,0.76117 0,-0.55309 -1.08922,-2.06869 -2.06438,-2.8725 -0.60751,-0.50076 -0.81003,-0.79675 -0.54513,-0.79675 1.2393,0 3.93243,3.24839 3.93243,4.74321 0,0.3491 0.79196,1.16831 2.31225,2.39179 1.27174,1.02346 2.40284,1.86083 2.51354,1.86083 0.54982,0 -0.46552,-4.0129 -1.57318,-6.21771 -0.68401,-1.36153 -0.87214,-2.24883 -0.61707,-2.91041 0.17924,-0.4649 0.25607,-0.40583 0.63256,0.48632 0.56018,1.32745 1.06315,1.12856 1.22981,-0.48632 0.15661,-1.5175 0.59039,-1.79119 1.05627,-0.66644 0.43273,1.04469 0.20716,2.67797 -0.50869,3.68328 -0.40618,0.57043 -0.51646,1.00044 -0.39335,1.53374 0.50721,2.19718 4.17212,7.50169 8.29124,12.00056 1.53963,1.68156 3.0606,3.40797 3.37994,3.83646 l 0.58061,0.77907 0.0147,-1.21737 c 0.01,-0.80914 -0.20461,-1.62983 -0.63932,-2.44739 -0.75352,-1.41718 -0.69993,-1.51803 0.26701,-0.50243 0.97233,1.02126 1.22254,1.74667 1.43731,4.16719 0.16794,1.89258 0.31839,2.33034 1.42114,4.13503 1.38692,2.26975 1.95323,2.88288 2.13443,2.31091 0.0628,-0.19829 0.17298,-2.23046 0.24481,-4.51593 0.13073,-4.15951 0.28902,-5.10885 0.73459,-4.40566 0.1251,0.19744 0.22928,0.62687 0.23151,0.95429 0.007,0.96922 0.67862,0.68137 1.34591,-0.5765 0.7091,-1.33665 1.03939,-1.32962 1.03939,0.0221 0,1.16145 -0.56599,2.14151 -1.73353,3.00177 -1.01083,0.74479 -1.03392,0.89173 -0.6562,4.1768 0.37979,3.3031 1.79061,7.86729 3.45779,11.1864 0.55301,1.10096 1.20835,2.70831 1.45632,3.57188 0.58262,2.02906 0.66172,2.14245 1.08788,1.55964 0.43125,-0.58977 0.47531,-3.37416 0.0655,-4.13988 -0.16128,-0.30136 -0.17562,-0.47241 -0.0322,-0.38375 0.49756,0.30751 1.1169,1.97699 1.1169,3.0107 0,0.57334 -0.1773,1.62691 -0.39401,2.34126 -0.50507,1.66491 -0.47855,3.50527 0.0813,5.64599 0.4723,1.80581 0.94284,2.29309 1.24551,1.28979 0.10119,-0.33543 0.56913,-1.50284 1.03988,-2.59425 0.47074,-1.09141 0.93286,-2.38135 1.02693,-2.86654 0.18658,-0.96233 1.11194,-2.42513 1.53412,-2.42513 0.14542,0 0.19685,0.23813 0.11428,0.52917 -0.0826,0.29104 -0.21768,0.76729 -0.30024,1.05833 -0.22634,0.79781 0.34342,0.65132 1.65872,-0.42647 0.64143,-0.5256 1.21601,-0.90586 1.27685,-0.84502 0.0608,0.0608 -0.0102,0.54814 -0.15783,1.08289 -0.28953,1.04857 -1.49159,2.14566 -2.6743,2.44076 -0.97256,0.24266 -1.38022,0.7836 -2.03057,2.69446 -0.45668,1.34179 -0.58972,2.56633 -0.73301,6.74687 -0.0963,2.80916 -0.0862,6.63461 0.0225,8.501 l 0.19754,3.39345 0.62349,-0.58575 c 0.38075,-0.3577 0.77288,-1.21533 1.00719,-2.20282 0.23221,-0.97865 0.40397,-1.35593 0.43507,-0.95562 0.15804,2.03416 -0.26026,3.28654 -1.65151,4.94456 -0.77626,0.92512 -0.97921,1.44027 -1.22899,3.11966 -0.16455,1.10636 -0.29755,2.45319 -0.29556,2.99294 l 0.004,0.98138 2.31148,-2.41545 c 1.27131,-1.3285 2.68161,-2.84655 3.13399,-3.37344 0.99979,-1.16445 2.0794,-1.40289 1.18107,-0.26084 -1.05342,1.3392 -0.56723,1.76615 1.17992,1.03615 0.90021,-0.37613 0.91754,-0.37124 0.91754,0.25849 0,0.90968 -0.89547,1.39038 -2.98842,1.60421 -1.61265,0.16476 -1.87261,0.27444 -2.52427,1.06502 -1.84835,2.24238 -4.51357,7.99798 -5.43784,11.74316 -0.34117,1.38244 -0.93391,3.25409 -1.31718,4.15921 -0.78332,1.84983 -0.84125,2.19494 -0.36614,2.18127 0.78097,-0.0225 2.21325,-1.64681 2.73068,-3.09683 0.33065,-0.92661 0.35574,-0.94417 0.36656,-0.25655 0.0243,1.54297 -1.35731,3.38443 -3.5637,4.74992 -0.78131,0.48353 -1.39282,1.24326 -2.31509,2.87619 -1.07757,1.9079 -1.52937,3.14512 -1.14852,3.14512 0.34259,0 4.51001,-2.12231 5.82317,-2.96552 2.09972,-1.34827 3.346,-1.40815 1.81106,-0.087 -0.40018,0.34445 -0.65445,0.69962 -0.56504,0.78928 0.0894,0.0897 0.77401,0.23543 1.52135,0.32394 0.74734,0.0885 1.3588,0.24985 1.3588,0.35852 0,0.10867 -0.38696,0.37803 -0.8599,0.59858 -0.84391,0.39354 -1.51017,0.362 -4.03489,-0.19102 -0.64831,-0.142 -1.09004,0.0217 -2.41074,0.89333 -2.14525,1.41582 -6.5039,5.97511 -8.51368,8.90556 -0.88814,1.295 -2.157,2.88535 -2.81967,3.53411 -0.66268,0.64877 -1.20487,1.28942 -1.20487,1.42369 0,0.47652 1.97047,-0.085 3.07058,-0.87506 1.49341,-1.07249 1.73123,-1.01248 0.61934,0.15629 -1.08667,1.14226 -3.21986,2.21038 -4.42165,2.21397 -0.6643,0.002 -1.3189,0.37593 -2.832,1.61782 -1.0824,0.88837 -2.16514,1.9161 -2.40609,2.28383 l -0.43808,0.66861 0.88884,-0.16017 c 0.48887,-0.0881 2.01994,-0.2945 3.40239,-0.45868 1.38245,-0.16418 2.71408,-0.40545 2.95917,-0.53616 0.56301,-0.30026 2.08665,-0.30151 2.55918,-0.002 0.42778,0.27105 0.20127,0.43255 -0.95429,0.68039 -0.47294,0.10143 -0.85989,0.3001 -0.85989,0.44149 0,0.31662 1.63897,1.02381 2.37275,1.02381 0.76242,0 0.66671,0.4932 -0.15644,0.80616 -1.00261,0.38119 -2.24092,0.0653 -3.63791,-0.92787 -1.10488,-0.78555 -1.3297,-0.84856 -2.34755,-0.65795 -3.16657,0.59297 -9.30849,3.49431 -12.41522,5.86475 -1.24736,0.95173 -2.68567,1.86829 -3.19625,2.03679 -0.51057,0.1685 -1.13467,0.53439 -1.38688,0.81308 -0.44004,0.48625 -0.42931,0.51406 0.26571,0.6885 0.68532,0.172 2.27104,-0.0901 3.43616,-0.568 0.4692,-0.19244 0.48844,-0.16696 0.16976,0.22489 -0.19767,0.24307 -1.00007,0.64389 -1.78311,0.89072 -1.20237,0.37901 -1.71219,0.40413 -3.27929,0.16157 -1.817884,-0.28138 -1.899934,-0.26859 -4.037724,0.62953 -2.37814,0.99909 -3.21139,1.57682 -2.55984,1.77485 1.27005,0.38602 5.07679,1.23166 6.174364,1.37158 2.47899,0.31604 3.56014,1.1789 1.47714,1.1789 -1.00187,0 -1.04214,0.0301 -0.7276,0.54419 0.18313,0.29931 0.72864,0.79066 1.21223,1.09188 1.0823,0.67416 0.76791,1.1543 -0.58913,0.89972 -0.89963,-0.16877 -1.30495,-0.54149 -3.031214,-2.78739 -0.4018,-0.52275 -0.82559,-0.68245 -2.18597,-0.82374 -3.30604,-0.34335 -11.03721,0.51119 -13.37644,1.47852 -0.46254,0.19127 -1.5341,0.42435 -2.38125,0.51794 -2.30304,0.25446 -2.99547,0.41648 -2.99547,0.7009 0,0.46412 1.80548,1.02345 3.36494,1.04245 l 1.52985,0.0186 -1.05599,0.38647 c -1.27886,0.46804 -3.02888,0.1751 -4.95841,-0.82998 -1.07268,-0.55876 -1.58401,-0.64763 -3.57187,-0.62081 -1.27599,0.0172 -2.67716,0.10919 -3.11373,0.20438 -0.78704,0.17161 -0.77698,0.18404 1.19063,1.47081 1.09141,0.71376 2.40109,1.51001 2.91042,1.76946 l 0.92604,0.47171 -0.97657,0.0105 c -0.53712,0.006 -1.05121,-0.11023 -1.14244,-0.25783 -0.81074,-1.31181 -10.45902,-3.96124 -14.43534,-3.96396 -0.81021,-5.5e-4 -2.32945,-0.22583 -3.37609,-0.50062 -1.93527,-0.50809 -2.51651,-0.37831 -1.8582,0.4149 0.55157,0.66461 2.27831,1.67221 2.86567,1.67221 0.29394,0 0.53443,0.12446 0.53443,0.27658 0,0.31166 -1.65374,0.0838 -2.51355,-0.34638 -0.97002,-0.48528 -2.74302,-2.04863 -2.90611,-2.56247 -0.24471,-0.77103 -6.222009,-2.66892 -6.222009,-1.97559 0,0.24811 2.3923,3.29815 3.72342,4.74715 1.50416,1.63734 2.017709,2.50655 1.48095,2.50655 -0.20378,0 -0.6759,-0.24022 -1.04915,-0.53383 -0.65096,-0.51204 -1.21926,-0.33158 -0.84793,0.26924 0.0959,0.15523 -0.18466,0.26459 -0.67891,0.26459 -0.79641,0 -0.83341,-0.0434 -0.67708,-0.79375 z m 27.417454,-4.26968 c 0.95677,-0.15702 2.35465,-0.63392 3.1507,-1.07488 0.86525,-0.47928 2.1094,-0.88871 3.1472,-1.03568 2.4274,-0.34376 4.73993,-1.71301 8.51515,-5.0418 l 1.40129,-1.23558 0.19013,-2.16252 c 0.17759,-2.0198 0.25312,-2.22551 1.14443,-3.11682 0.52486,-0.52486 1.03376,-0.87483 1.13089,-0.7777 0.0971,0.0971 -0.092,0.8949 -0.42036,1.77282 -0.47462,1.26913 -0.53145,1.67516 -0.27729,1.9814 0.17582,0.21185 0.24286,0.50945 0.14898,0.66135 -0.39316,0.63614 0.82977,0.2099 1.63389,-0.56948 0.72639,-0.70405 0.87249,-0.76291 0.87249,-0.35152 0,0.69038 -2.16853,2.69591 -3.14753,2.91093 -0.93028,0.20432 -6.11289,4.97161 -6.11289,5.62301 0,0.56739 1.35448,0.3159 5.36122,-0.99542 4.85848,-1.59008 7.87838,-3.17446 9.399054,-4.93119 0.73158,-0.84513 1.84852,-1.75205 2.70223,-2.19412 0.80037,-0.41444 1.76883,-1.09221 2.15215,-1.50614 1.06139,-1.14617 3.07249,-4.20459 4.07896,-6.20317 0.86798,-1.72358 0.88661,-1.82315 0.5099,-2.72476 -0.7801,-1.86704 -0.33149,-5.45072 0.68233,-5.45072 0.13727,0 0.24958,0.90571 0.24958,2.01268 0,1.62812 0.0717,1.98519 0.37498,1.86879 0.20624,-0.0791 0.43985,0.0252 0.51915,0.23182 0.26153,0.68155 0.97045,0.0809 1.28278,-1.08685 0.36645,-1.37014 0.7612,-1.30716 0.54699,0.0873 -0.20141,1.31107 -0.469,1.78797 -1.80666,3.21991 -1.12175,1.20081 -4.3416,7.26356 -4.02548,7.57968 0.82693,0.82693 10.15807,-6.90529 11.36235,-9.41537 0.24436,-0.50932 0.68947,-1.46182 0.98914,-2.11667 0.29967,-0.65484 1.01972,-1.71493 1.60012,-2.35576 1.23534,-1.36393 1.96103,-3.15749 2.66823,-6.59455 0.70822,-3.44199 0.67119,-4.13313 -0.28619,-5.34192 -1.50019,-1.89416 -1.96834,-3.89847 -1.22394,-5.2402 0.32526,-0.58626 0.3557,-0.54928 0.65732,0.79851 0.35994,1.60839 1.24497,3.22838 1.63278,2.9887 0.14328,-0.0886 0.26051,-0.0349 0.26051,0.11919 0,0.15411 0.10742,0.2802 0.2387,0.2802 0.30679,0 0.81843,-1.4626 0.82369,-2.35459 0.003,-0.54145 0.0587,-0.60352 0.26053,-0.29124 0.54899,0.84951 0.14913,3.52026 -0.67343,4.49791 -0.18366,0.21828 -0.52399,1.9695 -0.75629,3.8916 -0.50854,4.20777 -0.50554,4.0459 -0.075,4.0459 0.85657,0 3.66568,-4.08506 5.73117,-8.33437 1.10043,-2.26391 1.33011,-3.01925 1.59114,-5.23269 0.16778,-1.42278 0.60256,-3.43837 0.96617,-4.47911 0.63558,-1.81917 0.64947,-1.99515 0.35986,-4.55689 -0.16568,-1.46555 -0.44437,-3.49731 -0.61932,-4.51502 -0.28649,-1.66663 -0.40544,-1.90309 -1.19798,-2.38125 -1.76517,-1.06498 -2.93379,-2.2845 -3.22481,-3.36524 -0.45605,-1.69363 -0.10256,-2.05073 0.75946,-0.76722 0.84826,1.26303 1.73112,1.95106 2.62597,2.04647 0.88447,0.0943 0.99076,-0.46111 0.3608,-1.88523 -0.70315,-1.58961 -0.12508,-1.47224 0.72049,0.14627 0.51854,0.99254 0.59412,1.44744 0.48137,2.8972 -0.10607,1.36394 0.041,2.42714 0.71083,5.13834 0.46452,1.8802 0.97153,3.46086 1.12669,3.51258 0.3788,0.12627 0.78757,-0.83058 1.40691,-3.2933 1.32045,-5.25059 1.65243,-10.48519 0.80234,-12.65088 -0.16765,-0.42709 -0.39772,-2.02669 -0.51127,-3.55466 l -0.20645,-2.77812 -1.96738,-3.83646 -1.96739,-3.83646 -1.6881,-0.33771 c -0.92846,-0.18574 -2.0467,-0.54714 -2.48498,-0.80311 -0.80829,-0.47207 -1.8612,-1.96157 -1.69839,-2.40264 0.049,-0.13265 0.86154,0.2275 1.80571,0.80035 1.48316,0.89986 1.75666,0.98688 2.01054,0.63967 0.16162,-0.22103 0.36858,-0.32715 0.45991,-0.23583 0.0913,0.0913 0.24434,-0.038 0.34004,-0.28736 0.12025,-0.31339 -0.13953,-0.77447 -0.84122,-1.49308 -1.10268,-1.12923 -0.73715,-1.47365 0.51699,-0.48713 0.82251,0.64698 1.38571,1.66086 1.9177,3.45226 0.3975,1.33854 3.89967,6.84312 4.35378,6.84312 0.55686,0 0.58611,-1.05551 0.1317,-4.7515 -0.62663,-5.09669 -1.81912,-8.88944 -3.45892,-11.00118 -0.66408,-0.85521 -1.35469,-2.12692 -1.5847,-2.91812 -0.22422,-0.77129 -0.72934,-1.79721 -1.12248,-2.27983 -0.85483,-1.04938 -4.0145,-4.13679 -5.50836,-5.3824 l -1.06835,-0.89081 -1.74376,0.2987 c -1.49731,0.25647 -1.91199,0.23444 -2.93414,-0.15593 -1.1794,-0.45041 -2.27284,-1.35822 -1.98394,-1.64713 0.0825,-0.0825 0.60761,-0.0229 1.16696,0.13244 1.45027,0.4027 2.89742,0.35149 3.3681,-0.11918 0.59247,-0.59248 0.31007,-0.99885 -1.23563,-1.77802 -1.09068,-0.5498 -1.24501,-0.69905 -0.73599,-0.71177 1.43076,-0.0358 4.25072,2.04261 4.25072,3.13286 0,0.27067 0.51254,0.67642 4.06923,3.22145 3.03115,2.16896 3.17976,1.75341 0.96066,-2.68625 -2.34232,-4.68618 -4.50345,-7.60086 -6.99665,-9.43624 -0.87454,-0.6438 -2.36736,-1.96749 -3.31738,-2.94153 -1.24105,-1.27242 -2.13698,-1.93256 -3.18252,-2.34495 -0.80037,-0.31568 -2.55062,-1.0016 -3.88944,-1.52427 l -2.43423,-0.9503 -1.52408,0.86013 c -1.17574,0.66355 -1.83727,0.86014 -2.89431,0.86014 -1.2786,0 -2.22253,-0.39903 -2.22253,-0.93954 0,-0.1277 0.38696,-0.23285 0.8599,-0.23366 2.21728,-0.004 3.90997,-1.16288 3.01104,-2.06181 -0.27482,-0.27482 -0.86757,-0.3993 -1.80911,-0.37994 -1.30624,0.0269 -1.3648,0.002 -0.8712,-0.37349 0.99992,-0.76018 4.08034,-0.008 5.14353,1.25639 0.24733,0.29408 1.7336,0.86406 3.70903,1.4224 5.08025,1.43589 5.24387,1.3086 2.18814,-1.7023 -4.36771,-4.30364 -7.75365,-6.58224 -10.97859,-7.38814 -1.11946,-0.27975 -2.50343,-0.85018 -3.16202,-1.30331 -0.98437,-0.67726 -1.57809,-0.85118 -3.721584,-1.09019 -1.4027,-0.15641 -3.73757,-0.28439 -5.18861,-0.28439 h -2.63824 l -0.58196,0.81728 c -1.04526,1.46794 -2.5517,2.35772 -3.99169,2.35772 -1.48692,0 -1.65231,-0.2894 -0.42005,-0.73499 1.13014,-0.40866 2.48928,-1.61468 2.7188,-2.4125 l 0.18238,-0.63395 -1.81015,0.1453 c -1.6158,0.1297 -1.75451,0.10462 -1.29194,-0.23362 1.15366,-0.84358 2.41965,-1.00537 4.13499,-0.52847 1.34204,0.37312 2.24357,0.41858 5.30077,0.26725 4.47855,-0.22167 4.63494,-0.48293 1.27906,-2.13663 -4.04301,-1.9923 -7.60153,-3.01753 -11.36867,-3.27537 -7.01073,-0.47984 -8.23505,-0.38528 -12.36365,0.95489 l -3.70137,1.20149 -0.96101,1.90737 c -1.03545,2.05509 -2.05457,2.96906 -3.62937,3.25493 l -0.91655,0.16637 0.614,-0.45434 c 1.50561,-1.11408 2.71884,-3.72825 1.95062,-4.20303 -0.11742,-0.0726 -0.72979,0.16131 -1.36082,0.51974 -1.20477,0.68433 -1.64813,0.67264 -1.06657,-0.0281 0.80115,-0.96532 1.8863,-1.46867 3.64133,-1.68904 1.17715,-0.14781 2.87772,-0.67176 4.76267,-1.46739 5.27807,-2.22786 4.67746,-2.59611 -4.03999,-2.47704 l -6.09032,0.0832 -2.0659,1.00803 c -1.13625,0.55442 -2.95908,1.17892 -4.05074,1.38779 -2.17702,0.41653 -2.94816,0.85908 -6.785864,3.89434 -2.60183,2.05781 -2.94883,2.52764 -2.70083,3.65681 0.24844,1.13114 -0.60631,3.30641 -1.66419,4.23525 -0.72752,0.63876 -1.3947,0.97731 -1.38068,0.70059 0.002,-0.0364 0.35904,-0.76753 0.79375,-1.62478 0.89546,-1.76582 0.96658,-2.22683 0.37832,-2.45256 -0.22664,-0.087 -0.34944,-0.32136 -0.27288,-0.52086 0.29437,-0.76714 -0.63757,-0.31209 -1.56007,0.76174 -0.80348,0.9353 -0.9363,1.0132 -0.78947,0.46302 0.31202,-1.16915 1.56438,-2.49456 3.0433,-3.22081 0.82298,-0.40414 2.49053,-1.69924 3.89074,-3.02171 2.218254,-2.0951 2.891924,-3.01789 2.203184,-3.01789 -0.834214,0 -4.257024,0.90134 -6.483814,1.7074 -4.08301,1.47799 -5.90895,2.49384 -8.10511,4.50924 -1.11065,1.01923 -2.59929,2.21034 -3.30811,2.6469 -1.51565,0.9335 -2.70926,2.43535 -4.90252,6.16856 l -1.60327,2.72897 0.4188,1.04669 c 0.78097,1.95183 0.35481,5.5339 -0.65837,5.5339 -0.12241,0 -0.25754,-0.8632 -0.3003,-1.91822 -0.0427,-1.05503 -0.18316,-1.8587 -0.31201,-1.78594 -0.12885,0.0728 -0.34575,-0.16537 -0.48199,-0.52917 l -0.24771,-0.66146 -0.4957,0.60672 c -0.27263,0.33369 -0.58131,1.16713 -0.68594,1.85208 -0.18042,1.18103 -0.20097,1.20598 -0.3978,0.48296 -0.40994,-1.50579 0.31535,-3.24252 1.94675,-4.66155 0.83122,-0.72302 4.30612,-7.48879 3.91508,-7.62284 -1.03551,-0.35497 -8.997592,6.10794 -10.860515,8.81561 -0.421154,0.61213 -0.995861,1.7186 -1.277128,2.45883 -0.281266,0.74024 -1.105884,2.03715 -1.832484,2.88204 -0.7266,0.84488 -1.451123,1.95287 -1.61005,2.46219 -0.459629,1.473 -1.628862,7.11886 -1.628862,7.86528 0,0.38772 0.407339,1.17629 0.949205,1.83756 1.125056,1.37299 1.53499,2.66314 1.29588,4.07842 -0.216955,1.28415 -0.59261,1.55951 -0.795613,0.58321 -0.335813,-1.61503 -1.083404,-3.11978 -1.53166,-3.08293 -0.245838,0.0202 -0.446979,-0.12861 -0.446979,-0.33073 0,-0.20211 -0.113466,-0.36747 -0.252147,-0.36747 -0.371054,0 -0.799592,1.78485 -0.658559,2.74288 l 0.122037,0.82899 -0.387482,-0.79375 c -0.5796782,-1.18746 -0.4908982,-2.53379 0.281349,-4.26655 0.507471,-1.13867 0.788216,-2.43865 1.049911,-4.86157 0.196467,-1.81901 0.361003,-3.39659 0.365635,-3.50573 0.0046,-0.10914 -0.169424,-0.19844 -0.386793,-0.19844 -0.744243,0 -4.3832952,5.63453 -6.0155982,9.31426 -0.783306,1.76582 -1.084995,2.87638 -1.293765,4.7625 -0.155797,1.40755 -0.509035,2.969 -0.825793,3.65032 -0.444806,0.95676 -0.547455,1.66578 -0.522576,3.60957 0.03438,2.68617 0.723526,7.16299 1.188979,7.72382 0.165224,0.19909 0.937875,0.76976 1.717004,1.26816 1.562794,0.99971 2.426762,2.44037 2.436987,4.06367 l 0.0058,0.92251 -0.892378,-1.31938 c -1.167822,-1.72663 -1.784998,-2.25447 -2.78386,-2.38088 -0.99075,-0.12539 -1.027827,0.12203 -0.296373,1.97774 0.616983,1.5653 0.401606,1.71879 -0.517812,0.36904 -0.564771,-0.82912 -0.679454,-1.37919 -0.840843,-4.03309 -0.187177,-3.07795 -0.411418,-4.34945 -1.186512,-6.72779 -0.387972,-1.19047 -0.445353,-1.24606 -0.880068,-0.85265 -0.85955297,0.77789 -2.06006897,6.37051 -2.308108,10.75236 -0.136308,2.40803 -0.07853,3.06966 0.40795203,4.67129 0.375155,1.23511 0.566752,2.57655 0.566752,3.96802 0,2.05821 0.03594,2.17399 1.72099697,5.54398 2.122694,4.24525 2.535663,4.72024 4.316875,4.96522 1.640306,0.2256 3.33451,1.36548 3.846231,2.5878 0.197634,0.47208 0.332839,0.89184 0.300456,0.93281 -0.03238,0.041 -0.697331,-0.34599 -1.477664,-0.8599 -1.498699,-0.98701 -2.613983,-1.18414 -3.136609,-0.55442 -0.364239,0.43888 -0.10792,1.0657 0.755207,1.84682 0.728435,0.65922 0.706362,1.00828 -0.04164,0.65848 -0.866383,-0.40516 -2.013719,-2.01707 -2.321202,-3.26109 -0.368442,-1.49065 -0.93742,-2.54816 -2.70532397,-5.02812 -0.836438,-1.17333 -1.571514,-2.25315 -1.633502,-2.39959 -0.235377,-0.55605 -0.67421803,0.57647 -0.67810803,1.75 -0.0045,1.36723 0.83855503,6.48797 1.48605903,9.02604 0.502078,1.96803 1.12920697,3.26491 2.52352697,5.21857 0.566895,0.79431 1.222012,2.10399 1.455816,2.91042 0.350111,1.20758 0.780297,1.83248 2.438759,3.54259 1.107514,1.14201 2.741315,2.65719 3.6306682,3.36707 l 1.617006,1.29068 2.394551,-0.0598 c 2.579662,-0.0644 3.31435,0.2191 4.260416,1.64395 0.404802,0.60967 0.400209,0.61884 -0.159842,0.31911 -0.849571,-0.45468 -3.776011,-0.71875 -3.776011,-0.34073 0,0.16625 -0.178594,0.30228 -0.396875,0.30228 -0.702224,0 -0.423366,0.73421 0.49425,1.30133 0.490119,0.30291 1.144963,0.55075 1.455209,0.55075 0.310245,0 0.564082,0.11906 0.564082,0.26458 0,0.38878 -0.936432,0.32252 -2.059019,-0.1457 -1.055583,-0.44027 -2.703481,-1.88504 -2.703481,-2.37024 0,-0.16251 -0.327422,-0.59745 -0.727604,-0.96653 -0.949017,-0.87525 -5.6389422,-4.19044 -5.9281332,-4.19044 -0.771806,0 0.318845,2.59679 3.007091,7.15975 2.0358602,3.45562 3.3597642,5.05977 5.2163222,6.32053 0.866117,0.58817 2.138297,1.72215 2.827067,2.51994 0.876944,1.01577 1.853318,1.76317 3.257428,2.49355 2.026043,1.05388 6.166072,2.67289 6.834932,2.67289 0.1996,0 1.13363,-0.37171 2.07563,-0.82603 1.40835,-0.67923 1.90498,-0.79529 2.79459,-0.65303 2.28294,0.36506 2.81691,1.21448 0.76346,1.21448 -1.44539,0 -2.65828,0.43184 -2.65828,0.94646 0,0.1828 -0.14883,0.39433 -0.33073,0.47008 -0.5768,0.24018 0.5183,0.89191 1.86401,1.10933 l 1.24484,0.20112 -0.87222,0.19311 c -1.14566,0.25364 -2.88776,-0.15419 -3.88497,-0.90948 -0.43948,-0.33287 -1.0446,-0.73506 -1.3447,-0.89377 -0.48555,-0.25678 -6.763334,-2.17518 -7.118061,-2.17518 -0.827843,0 1.782587,2.97264 4.770411,5.43234 3.80615,3.13337 5.20909,3.98302 7.63276,4.62254 1.17683,0.31052 2.70328,0.9075 3.39211,1.32662 1.81452,1.10407 2.77367,1.29776 7.38012,1.49031 l 4.13462,0.17282 1.57197,-1.60651 c 1.15389,-1.17924 1.8306,-1.65504 2.54438,-1.78894 1.023936,-0.19209 2.755566,0.0966 2.034206,0.33907 -0.90604,0.30462 -3.397046,1.95468 -3.549116,2.35096 -0.32186,0.83877 0.37613,1.22716 1.88639,1.04965 1.543056,-0.18135 1.783626,-0.0353 0.670536,0.40722 -1.588456,0.63146 -2.500586,0.71469 -3.733046,0.34064 -2.0078,-0.60937 -8.74026,-0.34208 -8.97048,0.35613 -0.12207,0.37022 4.25293,2.53431 6.94884,3.43724 3.83855,1.28562 4.34809,1.35756 10.186456,1.43821 l 5.68854,0.0786 3.33559,-1.13378 c 1.83457,-0.62358 3.50695,-1.27842 3.71639,-1.45521 0.20945,-0.17678 0.53848,-0.79768 0.73119,-1.37976 0.48933,-1.47807 1.52128,-2.76825 2.56196,-3.20307 1.71092,-0.71487 1.88679,-0.45294 0.59621,0.88797 -1.27322,1.32287 -1.68582,2.06679 -1.28405,2.3151 0.13281,0.0821 0.17441,0.32402 0.0924,0.53764 -0.24968,0.65067 0.99914,0.46203 2.16126,-0.32647 1.05206,-0.71382 1.05298,-0.71393 0.63033,-0.075 -0.74801,1.1308 -1.67105,1.59951 -3.92478,1.99296 -2.19119,0.38253 -6.62644,2.11542 -7.75659,3.03056 l -0.56795,0.45989 0.63998,0.20312 c 2.03978,0.6474 8.74873,0.69818 12.42949,0.0941 z M 24.961492,218.59208 c -3.087854,-3.21637 -5.23833,-6.61102 -6.907721,-10.90421 -0.878244,-2.25859 -2.018127,-6.19587 -1.844141,-6.36985 0.05768,-0.0577 0.438121,0.75663 0.845436,1.80957 1.835766,4.74561 4.785838,9.98858 8.260356,14.68059 1.21231,1.63711 2.10225,2.97656 1.97765,2.97656 -0.1246,0 -1.17381,-0.98669 -2.33158,-2.19266 z m 85.640448,0.89467 c 0,-0.14205 0.11599,-0.32997 0.25776,-0.41759 0.47358,-0.29268 4.6628,-6.06328 5.90618,-8.13568 1.7738,-2.95648 4.41939,-9.20782 4.41939,-10.44271 0,-0.23745 0.0723,-0.35939 0.16073,-0.27099 0.23839,0.23838 -0.89659,5.29169 -1.6702,7.43632 -0.36967,1.02482 -1.33409,2.96891 -2.14316,4.32021 -1.90809,3.1869 -6.9307,8.62964 -6.9307,7.51044 z m -95.208231,-21.4563 c 0,-0.36381 0.06005,-0.51263 0.133452,-0.33073 0.0734,0.1819 0.0734,0.47955 0,0.66146 -0.0734,0.1819 -0.133452,0.0331 -0.133452,-0.33073 z m -0.540547,-4.05965 c -0.550523,-4.74609 -0.09718,-8.3535 1.659711,-13.20699 1.287935,-3.55798 3.91828,-8.61261 5.739801,-11.02995 1.685408,-2.2367 5.087768,-5.83466 5.517468,-5.83466 0.15011,0 -0.51405,0.98226 -1.47591,2.18281 -2.08699,2.60489 -3.00718,4.0146 -4.797038,7.34895 -2.582445,4.81088 -5.098378,11.0923 -5.638422,14.07719 -0.16506,0.91232 -0.377064,3.44469 -0.471119,5.6275 l -0.171008,3.96875 z m 107.159328,-0.34409 c -0.0695,-5.02325 -0.99518,-11.90956 -2.02165,-15.0392 -1.39488,-4.25297 -4.59329,-9.92303 -7.61386,-13.49769 -0.73778,-0.87312 -1.51697,-1.79586 -1.73153,-2.05052 -0.21456,-0.25466 -0.27135,-0.46302 -0.12621,-0.46302 0.45741,0 4.31986,4.01112 5.98726,6.21771 1.68238,2.22642 3.5802,5.56506 4.29257,7.55148 1.26606,3.53041 1.49911,5.04877 1.62273,10.57248 0.0668,2.98317 0.01,6.25739 -0.12723,7.27604 l -0.24861,1.85208 z"
       id="path1"
       sodipodi:nodetypes="cscssssssssssscssscsscssssssssscssssscsssssssssssssscssscssssssssssssssssssssssssssscssscsssssscssssssscsssssssscssssssssssscsscssssssscssscscsssssssssscssssssssssssssssssccssssssscsssssssscssssssssssscsssccsssssccssssssssssssssssssssssssssssssscssscssssssssssssssssssssssssssscsssssscccssssssssssssscccssscssscsssssssssssssssssssssssssssssscssssssssssssssssssssscccsssssssssssssssscssscsscssssssscssscscccsssssscsssscssssssscsscssssssscssssscscsssssssssscssccscssssssssssssssssscssscsssssssscssssssssssssssssssssssssssscssssssssssssssssssssssscsssssssscsscssssssscsssssscsssscsccssssssssssscssssssssssssssscsssssssssccscc" /></g></svg>
